<svg width="391" height="33" viewBox="0 0 391 33" fill="none" xmlns="http://www.w3.org/2000/svg">
<path d="M10.9414 4.55469C12.2435 4.63281 13.3372 4.69792 14.2227 4.75C15.1341 4.77604 15.8893 4.80208 16.4883 4.82812C17.1654 4.85417 17.7383 4.85417 18.207 4.82812C18.6758 4.80208 19.3138 4.73698 20.1211 4.63281C20.7982 4.55469 21.6966 4.4375 22.8164 4.28125C23.9622 4.09896 25.3815 3.86458 27.0742 3.57812C26.4753 4.17708 26.0065 4.72396 25.668 5.21875C25.3555 5.6875 25.1081 6.09115 24.9258 6.42969C24.7174 6.84635 24.5742 7.19792 24.4961 7.48438C24.444 7.74479 24.4961 8.39583 24.6523 9.4375C24.8086 10.4792 25.0299 11.7161 25.3164 13.1484C25.6029 14.5547 25.9154 16.0651 26.2539 17.6797C26.5924 19.2682 26.931 20.7656 27.2695 22.1719C27.6081 23.5521 27.9076 24.737 28.168 25.7266C28.4544 26.6901 28.6628 27.263 28.793 27.4453C29.1836 27.9922 29.431 28.3568 29.5352 28.5391C29.6393 28.6953 29.8216 28.8385 30.082 28.9688C30.1862 29.0208 30.3555 29.099 30.5898 29.2031C30.7982 29.3073 31.0716 29.4375 31.4102 29.5938C31.7747 29.75 32.2305 29.9323 32.7773 30.1406C31.7617 30.1927 30.8893 30.2318 30.1602 30.2578C29.431 30.2578 28.832 30.2708 28.3633 30.2969C27.8164 30.3229 27.3477 30.349 26.957 30.375C26.5664 30.375 26.0977 30.401 25.5508 30.4531C25.082 30.5052 24.4701 30.5573 23.7148 30.6094C22.9857 30.6615 22.1263 30.7135 21.1367 30.7656C21.6576 30.401 22.0742 30.0755 22.3867 29.7891C22.7253 29.4766 22.9857 29.2161 23.168 29.0078C23.3763 28.7474 23.5195 28.513 23.5977 28.3047C23.6497 28.0703 23.6888 27.7188 23.7148 27.25C23.7409 26.8333 23.7409 26.2865 23.7148 25.6094C23.6888 24.9062 23.6237 23.9948 23.5195 22.875L13.2461 23.9297C12.9857 24.3724 12.7904 24.763 12.6602 25.1016C12.5299 25.4141 12.4388 25.6875 12.3867 25.9219C12.3086 26.2083 12.2826 26.4427 12.3086 26.625C12.3607 26.8333 12.4518 27.0807 12.582 27.3672C12.7122 27.6276 12.8945 27.9401 13.1289 28.3047C13.3893 28.6432 13.7669 29.0469 14.2617 29.5156C13.6107 29.4896 12.9466 29.4766 12.2695 29.4766C11.5924 29.4766 10.9674 29.4896 10.3945 29.5156C9.71745 29.5417 9.05339 29.5677 8.40234 29.5938C7.7513 29.6198 7.00911 29.6589 6.17578 29.7109C5.47266 29.763 4.65234 29.8281 3.71484 29.9062C2.7513 29.9583 1.72266 30.0365 0.628906 30.1406C1.30599 29.8281 1.87891 29.5156 2.34766 29.2031C2.81641 28.8646 3.20703 28.5521 3.51953 28.2656C3.88411 27.9531 4.19661 27.6536 4.45703 27.3672C4.63932 27.1068 5.00391 26.5078 5.55078 25.5703C6.09766 24.6068 6.70964 23.474 7.38672 22.1719C8.08984 20.8698 8.81901 19.4766 9.57422 17.9922C10.3555 16.5078 11.0586 15.1146 11.6836 13.8125C12.3086 12.4844 12.8164 11.3385 13.207 10.375C13.5977 9.41146 13.793 8.78646 13.793 8.5C13.7409 8.16146 13.6107 7.78385 13.4023 7.36719C13.2201 7.0026 12.9336 6.58594 12.543 6.11719C12.1784 5.64844 11.6445 5.1276 10.9414 4.55469ZM23.0508 19.9844C22.8945 19.0729 22.7513 18.2917 22.6211 17.6406C22.4909 16.9635 22.3867 16.4036 22.3086 15.9609C22.2044 15.4401 22.1263 14.9844 22.0742 14.5938C21.9961 14.2292 21.9049 13.7604 21.8008 13.1875C21.6966 12.6927 21.5664 12.0807 21.4102 11.3516C21.2799 10.5964 21.1107 9.69792 20.9023 8.65625C19.418 11.625 18.2591 13.9297 17.4258 15.5703C16.6185 17.1849 16.0326 18.3698 15.668 19.125C15.2253 20.0104 14.9779 20.5312 14.9258 20.6875L23.0508 19.9844ZM31.6367 4.08594C32.5221 4.1901 33.2643 4.26823 33.8633 4.32031C34.4883 4.34635 34.9961 4.38542 35.3867 4.4375C35.8555 4.48958 36.2201 4.51562 36.4805 4.51562C36.7669 4.54167 37.1966 4.52865 37.7695 4.47656C38.2643 4.42448 38.9284 4.35938 39.7617 4.28125C40.6211 4.20312 41.7148 4.08594 43.043 3.92969C42.444 4.45052 41.9622 4.95833 41.5977 5.45312C41.2591 5.92188 40.9987 6.33854 40.8164 6.70312C40.582 7.14583 40.4388 7.5625 40.3867 7.95312C40.2826 8.57812 40.1914 9.4375 40.1133 10.5312C40.0612 11.599 40.0091 12.7708 39.957 14.0469C39.9049 15.3229 39.8789 16.638 39.8789 17.9922C39.8789 19.3464 39.8919 20.6354 39.918 21.8594C39.9701 23.0573 40.0482 24.125 40.1523 25.0625C40.2826 26 40.4388 26.6771 40.6211 27.0938C40.8815 27.5625 41.1549 28.0312 41.4414 28.5C41.7018 28.8906 42.0143 29.2943 42.3789 29.7109C42.7435 30.1276 43.1602 30.4661 43.6289 30.7266C42.0924 30.6484 40.8685 30.6094 39.957 30.6094H38.5508C38.1341 30.6094 37.6003 30.6354 36.9492 30.6875C36.4023 30.7396 35.7122 30.7917 34.8789 30.8438C34.0456 30.8958 33.043 30.974 31.8711 31.0781C32.4701 30.4271 32.9388 29.8021 33.2773 29.2031C33.6159 28.6042 33.8893 28.0833 34.0977 27.6406C34.332 27.1198 34.4883 26.625 34.5664 26.1562C34.6706 25.4792 34.7487 24.6458 34.8008 23.6562C34.8789 22.6406 34.931 21.5599 34.957 20.4141C34.9831 19.2422 34.9831 18.0573 34.957 16.8594C34.957 15.6354 34.931 14.4635 34.8789 13.3438C34.8268 12.224 34.7487 11.2083 34.6445 10.2969C34.5664 9.38542 34.4622 8.65625 34.332 8.10938C34.2539 7.77083 34.0977 7.39323 33.8633 6.97656C33.6549 6.61198 33.3685 6.19531 33.0039 5.72656C32.6654 5.23177 32.2096 4.6849 31.6367 4.08594ZM63.9648 4.55469C65.2669 4.63281 66.3607 4.69792 67.2461 4.75C68.1576 4.77604 68.9128 4.80208 69.5117 4.82812C70.1888 4.85417 70.7617 4.85417 71.2305 4.82812C71.6992 4.80208 72.3372 4.73698 73.1445 4.63281C73.8216 4.55469 74.7201 4.4375 75.8398 4.28125C76.9857 4.09896 78.4049 3.86458 80.0977 3.57812C79.4987 4.17708 79.0299 4.72396 78.6914 5.21875C78.3789 5.6875 78.1315 6.09115 77.9492 6.42969C77.7409 6.84635 77.5977 7.19792 77.5195 7.48438C77.4674 7.74479 77.5195 8.39583 77.6758 9.4375C77.832 10.4792 78.0534 11.7161 78.3398 13.1484C78.6263 14.5547 78.9388 16.0651 79.2773 17.6797C79.6159 19.2682 79.9544 20.7656 80.293 22.1719C80.6315 23.5521 80.931 24.737 81.1914 25.7266C81.4779 26.6901 81.6862 27.263 81.8164 27.4453C82.207 27.9922 82.4544 28.3568 82.5586 28.5391C82.6628 28.6953 82.8451 28.8385 83.1055 28.9688C83.2096 29.0208 83.3789 29.099 83.6133 29.2031C83.8216 29.3073 84.0951 29.4375 84.4336 29.5938C84.7982 29.75 85.2539 29.9323 85.8008 30.1406C84.7852 30.1927 83.9128 30.2318 83.1836 30.2578C82.4544 30.2578 81.8555 30.2708 81.3867 30.2969C80.8398 30.3229 80.3711 30.349 79.9805 30.375C79.5898 30.375 79.1211 30.401 78.5742 30.4531C78.1055 30.5052 77.4935 30.5573 76.7383 30.6094C76.0091 30.6615 75.1497 30.7135 74.1602 30.7656C74.681 30.401 75.0977 30.0755 75.4102 29.7891C75.7487 29.4766 76.0091 29.2161 76.1914 29.0078C76.3997 28.7474 76.543 28.513 76.6211 28.3047C76.6732 28.0703 76.7122 27.7188 76.7383 27.25C76.7643 26.8333 76.7643 26.2865 76.7383 25.6094C76.7122 24.9062 76.6471 23.9948 76.543 22.875L66.2695 23.9297C66.0091 24.3724 65.8138 24.763 65.6836 25.1016C65.5534 25.4141 65.4622 25.6875 65.4102 25.9219C65.332 26.2083 65.306 26.4427 65.332 26.625C65.3841 26.8333 65.4753 27.0807 65.6055 27.3672C65.7357 27.6276 65.918 27.9401 66.1523 28.3047C66.4128 28.6432 66.7904 29.0469 67.2852 29.5156C66.6341 29.4896 65.9701 29.4766 65.293 29.4766C64.6159 29.4766 63.9909 29.4896 63.418 29.5156C62.7409 29.5417 62.0768 29.5677 61.4258 29.5938C60.7747 29.6198 60.0326 29.6589 59.1992 29.7109C58.4961 29.763 57.6758 29.8281 56.7383 29.9062C55.7747 29.9583 54.7461 30.0365 53.6523 30.1406C54.3294 29.8281 54.9023 29.5156 55.3711 29.2031C55.8398 28.8646 56.2305 28.5521 56.543 28.2656C56.9076 27.9531 57.2201 27.6536 57.4805 27.3672C57.6628 27.1068 58.0273 26.5078 58.5742 25.5703C59.1211 24.6068 59.7331 23.474 60.4102 22.1719C61.1133 20.8698 61.8424 19.4766 62.5977 17.9922C63.3789 16.5078 64.082 15.1146 64.707 13.8125C65.332 12.4844 65.8398 11.3385 66.2305 10.375C66.6211 9.41146 66.8164 8.78646 66.8164 8.5C66.7643 8.16146 66.6341 7.78385 66.4258 7.36719C66.2435 7.0026 65.957 6.58594 65.5664 6.11719C65.2018 5.64844 64.668 5.1276 63.9648 4.55469ZM76.0742 19.9844C75.918 19.0729 75.7747 18.2917 75.6445 17.6406C75.5143 16.9635 75.4102 16.4036 75.332 15.9609C75.2279 15.4401 75.1497 14.9844 75.0977 14.5938C75.0195 14.2292 74.9284 13.7604 74.8242 13.1875C74.7201 12.6927 74.5898 12.0807 74.4336 11.3516C74.3034 10.5964 74.1341 9.69792 73.9258 8.65625C72.4414 11.625 71.2826 13.9297 70.4492 15.5703C69.6419 17.1849 69.056 18.3698 68.6914 19.125C68.2487 20.0104 68.0013 20.5312 67.9492 20.6875L76.0742 19.9844ZM105.91 17.1328C105.598 17.0807 105.207 17.0417 104.738 17.0156C104.296 16.9896 103.866 16.9766 103.449 16.9766C102.98 16.9766 102.486 16.9896 101.965 17.0156C101.418 17.0417 100.871 17.0677 100.324 17.0938C99.8555 17.1198 99.3216 17.1589 98.7227 17.2109C98.1497 17.237 97.5898 17.276 97.043 17.3281C97.2513 17.224 97.4336 17.0807 97.5898 16.8984C97.7721 16.7161 97.9284 16.5339 98.0586 16.3516C98.1888 16.1432 98.306 15.9219 98.4102 15.6875C98.5404 15.2969 98.5273 14.8281 98.3711 14.2812C98.2148 13.7083 97.9284 13.1875 97.5117 12.7188C97.1211 12.25 96.6133 11.8854 95.9883 11.625C95.3893 11.3385 94.7253 11.2734 93.9961 11.4297C93.2148 11.612 92.5117 11.8854 91.8867 12.25C91.2878 12.6146 90.7799 13.1224 90.3633 13.7734C89.9727 14.3984 89.6862 15.1797 89.5039 16.1172C89.3477 17.0286 89.3086 18.1224 89.3867 19.3984C89.4909 20.987 89.7513 22.25 90.168 23.1875C90.5846 24.125 91.0924 24.8281 91.6914 25.2969C92.2904 25.7656 92.9414 26.0521 93.6445 26.1562C94.3737 26.2344 95.0898 26.2344 95.793 26.1562C96.2878 26.0521 96.7435 25.8307 97.1602 25.4922C97.4987 25.2057 97.8112 24.7891 98.0977 24.2422C98.3841 23.6953 98.5143 22.9401 98.4883 21.9766L103.254 21.7812C102.707 23.3177 102.043 24.5417 101.262 25.4531C100.48 26.3385 99.7253 27.0286 98.9961 27.5234C98.1367 28.0964 97.2773 28.487 96.418 28.6953C95.3503 28.8776 94.3997 28.9557 93.5664 28.9297C92.7331 28.8776 91.9779 28.7474 91.3008 28.5391C90.6237 28.3307 89.9987 28.0703 89.4258 27.7578C88.8529 27.4453 88.306 27.1068 87.7852 26.7422C87.4466 26.5078 87.069 26.1172 86.6523 25.5703C86.2357 25.0234 85.8451 24.3724 85.4805 23.6172C85.1159 22.8359 84.8164 21.9766 84.582 21.0391C84.3477 20.1016 84.2565 19.138 84.3086 18.1484C84.3607 17.1328 84.5951 16.1172 85.0117 15.1016C85.4284 14.0859 86.0924 13.1094 87.0039 12.1719C88.3841 10.7656 89.8555 9.85417 91.418 9.4375C93.0065 8.99479 94.5039 8.8776 95.9102 9.08594C97.3164 9.26823 98.5664 9.67188 99.6602 10.2969C100.754 10.9219 101.522 11.599 101.965 12.3281C102.408 13.0573 102.733 13.6172 102.941 14.0078C103.176 14.3724 103.345 14.6589 103.449 14.8672C103.579 15.0495 103.684 15.1927 103.762 15.2969C103.866 15.375 104.009 15.4922 104.191 15.6484C104.322 15.7786 104.478 15.9219 104.66 16.0781C104.816 16.2083 104.999 16.3646 105.207 16.5469C105.415 16.7292 105.65 16.9245 105.91 17.1328ZM108.754 15.1797C108.884 15.0234 108.962 14.737 108.988 14.3203C109.04 13.8776 109.145 13.3828 109.301 12.8359C109.483 12.2891 109.783 11.7161 110.199 11.1172C110.616 10.5182 111.293 9.95833 112.23 9.4375C113.142 8.91667 114.027 8.60417 114.887 8.5C115.746 8.39583 116.566 8.4349 117.348 8.61719C118.129 8.79948 118.858 9.08594 119.535 9.47656C120.238 9.86719 120.876 10.2969 121.449 10.7656C121.84 11.0781 122.152 11.5339 122.387 12.1328C122.621 12.7057 122.803 13.3568 122.934 14.0859C123.064 14.8151 123.155 15.5833 123.207 16.3906C123.285 17.1719 123.337 17.9401 123.363 18.6953C123.389 19.4245 123.402 20.1016 123.402 20.7266C123.428 21.3255 123.48 21.8203 123.559 22.2109C123.663 22.7839 123.845 23.2786 124.105 23.6953C124.366 24.0859 124.652 24.4245 124.965 24.7109C125.277 24.9714 125.59 25.1797 125.902 25.3359C126.215 25.4922 126.488 25.6094 126.723 25.6875C126.879 25.7656 127.022 25.8177 127.152 25.8438C127.413 25.9479 127.595 25.9479 127.699 25.8438C127.543 26.2083 127.4 26.5208 127.27 26.7812C127.139 27.0417 127.035 27.263 126.957 27.4453C126.853 27.6536 126.762 27.8229 126.684 27.9531C126.605 28.1094 126.514 28.2526 126.41 28.3828C126.332 28.513 126.228 28.6562 126.098 28.8125C125.967 28.9688 125.837 29.138 125.707 29.3203C125.368 29.1901 125.043 29.0339 124.73 28.8516C124.444 28.6693 124.184 28.5 123.949 28.3438C123.663 28.1615 123.402 27.9792 123.168 27.7969C122.934 27.6146 122.712 27.4062 122.504 27.1719C122.322 26.9635 122.126 26.7422 121.918 26.5078C121.736 26.2734 121.579 26.013 121.449 25.7266C121.293 26.0651 120.915 26.5469 120.316 27.1719C119.743 27.7969 118.988 28.3698 118.051 28.8906C117.113 29.3854 116.02 29.737 114.77 29.9453C113.546 30.1536 112.191 30.0104 110.707 29.5156C110.056 29.3073 109.444 29.0078 108.871 28.6172C108.298 28.2005 107.803 27.7057 107.387 27.1328C106.996 26.5599 106.71 25.9089 106.527 25.1797C106.371 24.4245 106.384 23.5911 106.566 22.6797C106.749 21.7682 107.074 21 107.543 20.375C108.012 19.75 108.572 19.2422 109.223 18.8516C109.874 18.4609 110.603 18.1615 111.41 17.9531C112.217 17.7448 113.051 17.6016 113.91 17.5234C114.587 17.4974 115.264 17.5365 115.941 17.6406C116.514 17.7448 117.113 17.9401 117.738 18.2266C118.363 18.487 118.897 18.8906 119.34 19.4375C119.314 18.0573 119.262 16.9635 119.184 16.1562C119.132 15.3229 119.079 14.6849 119.027 14.2422C118.923 13.7214 118.832 13.3568 118.754 13.1484C118.624 12.9661 118.48 12.7578 118.324 12.5234C118.194 12.2891 118.025 12.0807 117.816 11.8984C117.608 11.6901 117.348 11.5208 117.035 11.3906C116.723 11.2604 116.358 11.2083 115.941 11.2344C115.499 11.2604 115.147 11.3776 114.887 11.5859C114.626 11.7943 114.418 12.0417 114.262 12.3281C114.132 12.5885 114.053 12.875 114.027 13.1875C114.001 13.5 114.014 13.7734 114.066 14.0078C114.118 14.1641 114.197 14.3333 114.301 14.5156C114.405 14.6719 114.548 14.8411 114.73 15.0234C114.913 15.2057 115.16 15.362 115.473 15.4922C114.874 15.5703 114.34 15.6354 113.871 15.6875C113.402 15.7135 112.999 15.7526 112.66 15.8047C112.27 15.8568 111.931 15.8958 111.645 15.9219C111.358 15.9479 111.02 16 110.629 16.0781C110.29 16.1302 109.874 16.1953 109.379 16.2734C108.884 16.3516 108.311 16.4557 107.66 16.5859C107.816 16.4036 107.96 16.2344 108.09 16.0781C108.22 15.8958 108.337 15.7396 108.441 15.6094C108.546 15.4531 108.65 15.3099 108.754 15.1797ZM114.613 19.8281C114.145 19.8542 113.676 19.9714 113.207 20.1797C112.738 20.362 112.322 20.6354 111.957 21C111.592 21.3385 111.28 21.7422 111.02 22.2109C110.785 22.6536 110.668 23.1484 110.668 23.6953C110.668 24.2422 110.798 24.724 111.059 25.1406C111.345 25.5312 111.71 25.8568 112.152 26.1172C112.621 26.3776 113.116 26.5339 113.637 26.5859C114.184 26.638 114.717 26.5859 115.238 26.4297C115.733 26.2474 116.202 25.9609 116.645 25.5703C117.087 25.1536 117.465 24.7109 117.777 24.2422C118.09 23.7474 118.311 23.2656 118.441 22.7969C118.572 22.3021 118.585 21.8984 118.48 21.5859C118.272 20.9089 117.803 20.4401 117.074 20.1797C116.345 19.8932 115.525 19.776 114.613 19.8281ZM146.988 1.07812C147.483 1.10417 148.017 1.11719 148.59 1.11719C149.085 1.11719 149.645 1.13021 150.27 1.15625C150.921 1.15625 151.598 1.13021 152.301 1.07812C151.676 1.36458 151.129 1.78125 150.66 2.32812C150.191 2.875 149.814 3.42188 149.527 3.96875C149.163 4.61979 148.863 5.29688 148.629 6C148.499 6.41667 148.395 7.15885 148.316 8.22656C148.238 9.26823 148.173 10.4922 148.121 11.8984C148.095 13.3047 148.082 14.7891 148.082 16.3516C148.082 17.9141 148.095 19.4115 148.121 20.8438C148.147 22.25 148.186 23.5 148.238 24.5938C148.29 25.6875 148.355 26.4557 148.434 26.8984C148.538 27.4193 148.668 27.9141 148.824 28.3828C148.954 28.7995 149.124 29.2292 149.332 29.6719C149.54 30.0885 149.801 30.4271 150.113 30.6875L146.129 32.4844C145.921 32.1979 145.751 31.8984 145.621 31.5859C145.491 31.2995 145.387 31.0391 145.309 30.8047C145.204 30.5182 145.139 30.2578 145.113 30.0234C145.061 29.7109 145.009 29.3724 144.957 29.0078C144.905 28.6172 144.84 28.2526 144.762 27.9141C144.71 27.5495 144.671 27.25 144.645 27.0156C144.618 26.7812 144.618 26.638 144.645 26.5859C144.671 26.5339 144.514 26.7682 144.176 27.2891C143.837 27.7839 143.329 28.3698 142.652 29.0469C142.001 29.6979 141.194 30.3359 140.23 30.9609C139.267 31.5599 138.186 31.9375 136.988 32.0938C135.764 32.25 134.632 32.0156 133.59 31.3906C132.574 30.7656 131.702 29.8932 130.973 28.7734C130.243 27.6276 129.684 26.3125 129.293 24.8281C128.928 23.3177 128.785 21.7812 128.863 20.2188C128.915 19.1771 129.15 18.2526 129.566 17.4453C129.983 16.612 130.504 15.8958 131.129 15.2969C131.78 14.6719 132.483 14.151 133.238 13.7344C134.02 13.2917 134.775 12.9271 135.504 12.6406C136.259 12.3542 136.962 12.1458 137.613 12.0156C138.264 11.8854 138.785 11.7943 139.176 11.7422C139.645 11.7161 140.178 11.7943 140.777 11.9766C141.298 12.1328 141.897 12.3932 142.574 12.7578C143.277 13.1224 144.059 13.6693 144.918 14.3984C144.762 11.7943 144.618 9.71094 144.488 8.14844C144.358 6.5599 144.228 5.34896 144.098 4.51562C143.967 3.52604 143.85 2.84896 143.746 2.48438C143.616 2.22396 143.447 1.96354 143.238 1.70312C143.056 1.49479 142.822 1.28646 142.535 1.07812C142.275 0.84375 141.962 0.661458 141.598 0.53125C142.275 0.661458 142.926 0.752604 143.551 0.804688C144.176 0.856771 144.749 0.908854 145.27 0.960938C145.868 1.01302 146.441 1.05208 146.988 1.07812ZM137.184 15.6484C136.689 15.8307 136.285 16.1432 135.973 16.5859C135.686 17.0286 135.452 17.5625 135.27 18.1875C135.087 18.7865 134.957 19.4375 134.879 20.1406C134.827 20.8177 134.788 21.4818 134.762 22.1328C134.762 22.7578 134.762 23.3307 134.762 23.8516C134.762 24.3724 134.762 24.763 134.762 25.0234C134.762 25.1797 134.788 25.4661 134.84 25.8828C134.918 26.2734 135.074 26.6901 135.309 27.1328C135.543 27.5495 135.868 27.9271 136.285 28.2656C136.728 28.6042 137.314 28.7734 138.043 28.7734C138.642 28.7214 139.28 28.513 139.957 28.1484C140.556 27.8359 141.233 27.3411 141.988 26.6641C142.77 25.9609 143.603 24.9583 144.488 23.6562C144.436 22.8229 144.397 22.1328 144.371 21.5859C144.371 21.0391 144.358 20.5964 144.332 20.2578C144.306 19.8672 144.293 19.5547 144.293 19.3203V18.7344C144.293 18.5781 144.293 18.4089 144.293 18.2266C144.293 18.0443 144.306 17.875 144.332 17.7188C143.603 17.1979 142.952 16.7552 142.379 16.3906C141.832 16 141.285 15.7135 140.738 15.5312C140.217 15.3229 139.671 15.2318 139.098 15.2578C138.551 15.2578 137.913 15.388 137.184 15.6484ZM162.137 24.7109C162.866 24.7109 163.543 24.6328 164.168 24.4766C164.689 24.3464 165.184 24.138 165.652 23.8516C166.147 23.5391 166.473 23.0833 166.629 22.4844C167.15 22.5885 167.592 22.6797 167.957 22.7578C168.322 22.8099 168.634 22.862 168.895 22.9141C169.181 22.9922 169.428 23.0443 169.637 23.0703C169.845 23.1224 170.092 23.1745 170.379 23.2266C170.639 23.2786 170.952 23.3438 171.316 23.4219C171.707 23.474 172.163 23.5521 172.684 23.6562C172.293 23.6042 171.889 23.6432 171.473 23.7734C171.082 23.9036 170.704 24.0469 170.34 24.2031C169.923 24.3854 169.533 24.6068 169.168 24.8672C168.934 25.0234 168.66 25.2578 168.348 25.5703C168.061 25.8828 167.645 26.1823 167.098 26.4688C166.551 26.7552 165.822 27.0026 164.91 27.2109C164.025 27.3932 162.879 27.4583 161.473 27.4062C159.78 27.3542 158.361 27.0547 157.215 26.5078C156.069 25.9349 155.145 25.2448 154.441 24.4375C153.738 23.6042 153.23 22.7057 152.918 21.7422C152.605 20.7786 152.436 19.8802 152.41 19.0469C152.384 18.2135 152.632 17.3411 153.152 16.4297C153.673 15.5182 154.402 14.6849 155.34 13.9297C156.303 13.1745 157.462 12.5625 158.816 12.0938C160.171 11.599 161.655 11.3516 163.27 11.3516C164.207 11.3516 165.066 11.4688 165.848 11.7031C166.655 11.9115 167.384 12.1979 168.035 12.5625C168.712 12.9271 169.298 13.3438 169.793 13.8125C170.288 14.2552 170.704 14.7109 171.043 15.1797C171.382 15.6745 171.668 16.1953 171.902 16.7422C172.111 17.2109 172.28 17.7448 172.41 18.3438C172.54 18.9427 172.579 19.5547 172.527 20.1797C170.548 20.2318 168.947 20.2708 167.723 20.2969C166.525 20.3229 165.587 20.3359 164.91 20.3359H163.152H161.824C161.355 20.3359 160.743 20.349 159.988 20.375C159.233 20.401 158.309 20.4401 157.215 20.4922C157.345 21.5339 157.671 22.3411 158.191 22.9141C158.738 23.4609 159.311 23.8776 159.91 24.1641C160.587 24.4766 161.329 24.6589 162.137 24.7109ZM158.621 17.6797C159.454 17.7318 160.145 17.7708 160.691 17.7969C161.264 17.8229 161.733 17.849 162.098 17.875C162.488 17.901 162.801 17.9141 163.035 17.9141H164.012C164.663 17.9141 165.874 17.875 167.645 17.7969C167.566 16.651 167.319 15.7786 166.902 15.1797C166.512 14.5807 166.095 14.138 165.652 13.8516C165.132 13.5391 164.559 13.3568 163.934 13.3047C162.241 13.3307 160.978 13.6823 160.145 14.3594C159.337 15.0365 158.829 16.1432 158.621 17.6797ZM174.395 12.4844C174.993 12.4323 175.501 12.3802 175.918 12.3281C176.361 12.276 176.725 12.224 177.012 12.1719C177.35 12.1198 177.637 12.0677 177.871 12.0156C178.105 11.9896 178.366 11.9375 178.652 11.8594C178.913 11.8073 179.199 11.7422 179.512 11.6641C179.85 11.5599 180.215 11.4427 180.605 11.3125L180.371 16.2734C180.944 15.362 181.608 14.6719 182.363 14.2031C183.118 13.7083 183.835 13.3438 184.512 13.1094C185.319 12.8229 186.126 12.6536 186.934 12.6016C187.767 12.6276 188.535 12.7578 189.238 12.9922C189.837 13.2005 190.436 13.526 191.035 13.9688C191.66 14.4115 192.142 15.0625 192.48 15.9219C193.366 15.0104 194.238 14.3073 195.098 13.8125C195.983 13.2917 196.764 12.901 197.441 12.6406C198.249 12.3542 199.004 12.1849 199.707 12.1328C200.645 12.1068 201.504 12.263 202.285 12.6016C203.092 12.9401 203.796 13.3698 204.395 13.8906C204.993 14.3854 205.475 14.9193 205.84 15.4922C206.204 16.0391 206.413 16.5208 206.465 16.9375C206.543 17.5104 206.504 18.2526 206.348 19.1641C206.191 20.0495 206.009 20.9609 205.801 21.8984C205.592 22.8099 205.397 23.6562 205.215 24.4375C205.059 25.1927 204.993 25.7266 205.02 26.0391C205.098 26.2995 205.28 26.612 205.566 26.9766C205.827 27.2891 206.204 27.6797 206.699 28.1484C207.22 28.5911 207.962 29.112 208.926 29.7109C208.092 29.6849 207.35 29.6589 206.699 29.6328C206.074 29.6068 205.54 29.5677 205.098 29.5156C204.577 29.4635 204.121 29.4245 203.73 29.3984C203.418 29.3984 203.04 29.3724 202.598 29.3203C202.233 29.2943 201.751 29.2552 201.152 29.2031C200.579 29.151 199.915 29.099 199.16 29.0469C199.447 28.9688 199.681 28.8255 199.863 28.6172C200.046 28.3828 200.202 28.1615 200.332 27.9531C200.462 27.6927 200.566 27.4062 200.645 27.0938C200.697 26.8333 200.749 26.4167 200.801 25.8438C200.853 25.2708 200.892 24.6198 200.918 23.8906C200.97 23.1615 200.996 22.3932 200.996 21.5859C201.022 20.7786 201.022 20.0104 200.996 19.2812C200.97 18.5521 200.918 17.888 200.84 17.2891C200.762 16.6901 200.658 16.2344 200.527 15.9219C200.423 15.6875 200.241 15.5052 199.98 15.375C199.72 15.2188 199.421 15.1276 199.082 15.1016C198.743 15.0495 198.405 15.0625 198.066 15.1406C197.728 15.1927 197.428 15.2969 197.168 15.4531C196.934 15.6354 196.621 15.8828 196.23 16.1953C195.892 16.4818 195.449 16.8724 194.902 17.3672C194.355 17.862 193.665 18.487 192.832 19.2422C192.754 20.8828 192.689 22.2109 192.637 23.2266C192.611 24.2161 192.585 24.9714 192.559 25.4922C192.533 26.1172 192.52 26.5469 192.52 26.7812C192.493 26.9896 192.507 27.1849 192.559 27.3672C192.611 27.7578 192.767 28.1224 193.027 28.4609C192.715 28.3828 192.376 28.3307 192.012 28.3047C191.673 28.2786 191.361 28.2526 191.074 28.2266C190.736 28.2005 190.397 28.1875 190.059 28.1875C189.772 28.1875 189.46 28.2005 189.121 28.2266C188.835 28.2526 188.483 28.2917 188.066 28.3438C187.65 28.3698 187.194 28.4089 186.699 28.4609C186.908 28.3307 187.077 28.1745 187.207 27.9922C187.337 27.8099 187.441 27.6406 187.52 27.4844C187.624 27.3021 187.702 27.1328 187.754 26.9766C187.78 26.8203 187.832 26.4427 187.91 25.8438C187.988 25.2188 188.04 24.4896 188.066 23.6562C188.092 22.8229 188.092 21.9505 188.066 21.0391C188.04 20.1016 187.949 19.2552 187.793 18.5C187.637 17.7188 187.389 17.0807 187.051 16.5859C186.738 16.0911 186.322 15.8698 185.801 15.9219C185.176 15.974 184.538 16.1302 183.887 16.3906C183.34 16.599 182.754 16.9115 182.129 17.3281C181.504 17.7448 180.918 18.3047 180.371 19.0078C180.267 20.9609 180.202 22.5104 180.176 23.6562C180.176 24.8021 180.189 25.6745 180.215 26.2734C180.241 26.9766 180.267 27.4583 180.293 27.7188C180.319 27.901 180.384 28.0833 180.488 28.2656C180.566 28.4219 180.658 28.6042 180.762 28.8125C180.892 29.0208 181.035 29.2161 181.191 29.3984L174.98 29.0859C175.189 28.9818 175.371 28.8516 175.527 28.6953C175.684 28.513 175.814 28.3307 175.918 28.1484C176.022 27.9401 176.126 27.7318 176.23 27.5234C176.309 27.3411 176.374 26.9115 176.426 26.2344C176.504 25.5573 176.569 24.763 176.621 23.8516C176.673 22.9141 176.712 21.9375 176.738 20.9219C176.79 19.8802 176.816 18.9167 176.816 18.0312C176.842 17.1198 176.855 16.3516 176.855 15.7266C176.855 15.0755 176.842 14.6849 176.816 14.5547C176.738 14.2943 176.595 14.0208 176.387 13.7344C176.204 13.526 175.957 13.3047 175.645 13.0703C175.332 12.8099 174.915 12.6146 174.395 12.4844ZM209.621 13.5391L216.809 13.6172C216.392 15.2057 216.079 16.5599 215.871 17.6797C215.689 18.7995 215.572 19.737 215.52 20.4922C215.415 21.3516 215.389 22.0807 215.441 22.6797C215.52 23.2266 215.65 23.8125 215.832 24.4375C215.988 24.9583 216.223 25.5573 216.535 26.2344C216.848 26.9115 217.264 27.5885 217.785 28.2656C217.473 28.1615 217.134 28.0833 216.77 28.0312C216.405 27.9792 216.066 27.9401 215.754 27.9141C215.389 27.888 215.025 27.888 214.66 27.9141C214.296 27.9401 213.892 27.9792 213.449 28.0312C213.085 28.0833 212.642 28.1484 212.121 28.2266C211.6 28.3047 211.053 28.4089 210.48 28.5391C210.871 27.3672 211.171 26.3516 211.379 25.4922C211.613 24.6328 211.783 23.9167 211.887 23.3438C211.991 22.6667 212.056 22.1198 212.082 21.7031C212.082 21.1823 212.082 20.5964 212.082 19.9453C212.082 19.2682 212.082 18.6172 212.082 17.9922C212.082 17.3672 212.069 16.8203 212.043 16.3516C212.017 15.8568 211.965 15.5443 211.887 15.4141L211.496 15.0234C211.34 14.8932 211.105 14.7109 210.793 14.4766C210.507 14.2161 210.116 13.9036 209.621 13.5391ZM212.395 7.52344C212.941 7.23698 213.488 7.15885 214.035 7.28906C214.608 7.41927 215.051 7.66667 215.363 8.03125C215.676 8.39583 215.78 8.82552 215.676 9.32031C215.598 9.8151 215.181 10.2969 214.426 10.7656C213.671 11.2083 213.007 11.3646 212.434 11.2344C211.861 11.1042 211.457 10.8307 211.223 10.4141C210.988 9.9974 210.949 9.51562 211.105 8.96875C211.262 8.39583 211.691 7.91406 212.395 7.52344ZM241.527 17.1328C241.215 17.0807 240.824 17.0417 240.355 17.0156C239.913 16.9896 239.483 16.9766 239.066 16.9766C238.598 16.9766 238.103 16.9896 237.582 17.0156C237.035 17.0417 236.488 17.0677 235.941 17.0938C235.473 17.1198 234.939 17.1589 234.34 17.2109C233.767 17.237 233.207 17.276 232.66 17.3281C232.868 17.224 233.051 17.0807 233.207 16.8984C233.389 16.7161 233.546 16.5339 233.676 16.3516C233.806 16.1432 233.923 15.9219 234.027 15.6875C234.158 15.2969 234.145 14.8281 233.988 14.2812C233.832 13.7083 233.546 13.1875 233.129 12.7188C232.738 12.25 232.23 11.8854 231.605 11.625C231.007 11.3385 230.342 11.2734 229.613 11.4297C228.832 11.612 228.129 11.8854 227.504 12.25C226.905 12.6146 226.397 13.1224 225.98 13.7734C225.59 14.3984 225.303 15.1797 225.121 16.1172C224.965 17.0286 224.926 18.1224 225.004 19.3984C225.108 20.987 225.368 22.25 225.785 23.1875C226.202 24.125 226.71 24.8281 227.309 25.2969C227.908 25.7656 228.559 26.0521 229.262 26.1562C229.991 26.2344 230.707 26.2344 231.41 26.1562C231.905 26.0521 232.361 25.8307 232.777 25.4922C233.116 25.2057 233.428 24.7891 233.715 24.2422C234.001 23.6953 234.132 22.9401 234.105 21.9766L238.871 21.7812C238.324 23.3177 237.66 24.5417 236.879 25.4531C236.098 26.3385 235.342 27.0286 234.613 27.5234C233.754 28.0964 232.895 28.487 232.035 28.6953C230.967 28.8776 230.017 28.9557 229.184 28.9297C228.35 28.8776 227.595 28.7474 226.918 28.5391C226.241 28.3307 225.616 28.0703 225.043 27.7578C224.47 27.4453 223.923 27.1068 223.402 26.7422C223.064 26.5078 222.686 26.1172 222.27 25.5703C221.853 25.0234 221.462 24.3724 221.098 23.6172C220.733 22.8359 220.434 21.9766 220.199 21.0391C219.965 20.1016 219.874 19.138 219.926 18.1484C219.978 17.1328 220.212 16.1172 220.629 15.1016C221.046 14.0859 221.71 13.1094 222.621 12.1719C224.001 10.7656 225.473 9.85417 227.035 9.4375C228.624 8.99479 230.121 8.8776 231.527 9.08594C232.934 9.26823 234.184 9.67188 235.277 10.2969C236.371 10.9219 237.139 11.599 237.582 12.3281C238.025 13.0573 238.35 13.6172 238.559 14.0078C238.793 14.3724 238.962 14.6589 239.066 14.8672C239.197 15.0495 239.301 15.1927 239.379 15.2969C239.483 15.375 239.626 15.4922 239.809 15.6484C239.939 15.7786 240.095 15.9219 240.277 16.0781C240.434 16.2083 240.616 16.3646 240.824 16.5469C241.033 16.7292 241.267 16.9245 241.527 17.1328ZM260.496 4.55469C261.798 4.63281 262.892 4.69792 263.777 4.75C264.689 4.77604 265.444 4.80208 266.043 4.82812C266.72 4.85417 267.293 4.85417 267.762 4.82812C268.23 4.80208 268.868 4.73698 269.676 4.63281C270.353 4.55469 271.251 4.4375 272.371 4.28125C273.517 4.09896 274.936 3.86458 276.629 3.57812C276.03 4.17708 275.561 4.72396 275.223 5.21875C274.91 5.6875 274.663 6.09115 274.48 6.42969C274.272 6.84635 274.129 7.19792 274.051 7.48438C273.999 7.74479 274.051 8.39583 274.207 9.4375C274.363 10.4792 274.585 11.7161 274.871 13.1484C275.158 14.5547 275.47 16.0651 275.809 17.6797C276.147 19.2682 276.486 20.7656 276.824 22.1719C277.163 23.5521 277.462 24.737 277.723 25.7266C278.009 26.6901 278.217 27.263 278.348 27.4453C278.738 27.9922 278.986 28.3568 279.09 28.5391C279.194 28.6953 279.376 28.8385 279.637 28.9688C279.741 29.0208 279.91 29.099 280.145 29.2031C280.353 29.3073 280.626 29.4375 280.965 29.5938C281.329 29.75 281.785 29.9323 282.332 30.1406C281.316 30.1927 280.444 30.2318 279.715 30.2578C278.986 30.2578 278.387 30.2708 277.918 30.2969C277.371 30.3229 276.902 30.349 276.512 30.375C276.121 30.375 275.652 30.401 275.105 30.4531C274.637 30.5052 274.025 30.5573 273.27 30.6094C272.54 30.6615 271.681 30.7135 270.691 30.7656C271.212 30.401 271.629 30.0755 271.941 29.7891C272.28 29.4766 272.54 29.2161 272.723 29.0078C272.931 28.7474 273.074 28.513 273.152 28.3047C273.204 28.0703 273.243 27.7188 273.27 27.25C273.296 26.8333 273.296 26.2865 273.27 25.6094C273.243 24.9062 273.178 23.9948 273.074 22.875L262.801 23.9297C262.54 24.3724 262.345 24.763 262.215 25.1016C262.085 25.4141 261.993 25.6875 261.941 25.9219C261.863 26.2083 261.837 26.4427 261.863 26.625C261.915 26.8333 262.007 27.0807 262.137 27.3672C262.267 27.6276 262.449 27.9401 262.684 28.3047C262.944 28.6432 263.322 29.0469 263.816 29.5156C263.165 29.4896 262.501 29.4766 261.824 29.4766C261.147 29.4766 260.522 29.4896 259.949 29.5156C259.272 29.5417 258.608 29.5677 257.957 29.5938C257.306 29.6198 256.564 29.6589 255.73 29.7109C255.027 29.763 254.207 29.8281 253.27 29.9062C252.306 29.9583 251.277 30.0365 250.184 30.1406C250.861 29.8281 251.434 29.5156 251.902 29.2031C252.371 28.8646 252.762 28.5521 253.074 28.2656C253.439 27.9531 253.751 27.6536 254.012 27.3672C254.194 27.1068 254.559 26.5078 255.105 25.5703C255.652 24.6068 256.264 23.474 256.941 22.1719C257.645 20.8698 258.374 19.4766 259.129 17.9922C259.91 16.5078 260.613 15.1146 261.238 13.8125C261.863 12.4844 262.371 11.3385 262.762 10.375C263.152 9.41146 263.348 8.78646 263.348 8.5C263.296 8.16146 263.165 7.78385 262.957 7.36719C262.775 7.0026 262.488 6.58594 262.098 6.11719C261.733 5.64844 261.199 5.1276 260.496 4.55469ZM272.605 19.9844C272.449 19.0729 272.306 18.2917 272.176 17.6406C272.046 16.9635 271.941 16.4036 271.863 15.9609C271.759 15.4401 271.681 14.9844 271.629 14.5938C271.551 14.2292 271.46 13.7604 271.355 13.1875C271.251 12.6927 271.121 12.0807 270.965 11.3516C270.835 10.5964 270.665 9.69792 270.457 8.65625C268.973 11.625 267.814 13.9297 266.98 15.5703C266.173 17.1849 265.587 18.3698 265.223 19.125C264.78 20.0104 264.533 20.5312 264.48 20.6875L272.605 19.9844ZM299.785 1.07812C300.28 1.10417 300.814 1.11719 301.387 1.11719C301.882 1.11719 302.441 1.13021 303.066 1.15625C303.717 1.15625 304.395 1.13021 305.098 1.07812C304.473 1.36458 303.926 1.78125 303.457 2.32812C302.988 2.875 302.611 3.42188 302.324 3.96875C301.96 4.61979 301.66 5.29688 301.426 6C301.296 6.41667 301.191 7.15885 301.113 8.22656C301.035 9.26823 300.97 10.4922 300.918 11.8984C300.892 13.3047 300.879 14.7891 300.879 16.3516C300.879 17.9141 300.892 19.4115 300.918 20.8438C300.944 22.25 300.983 23.5 301.035 24.5938C301.087 25.6875 301.152 26.4557 301.23 26.8984C301.335 27.4193 301.465 27.9141 301.621 28.3828C301.751 28.7995 301.921 29.2292 302.129 29.6719C302.337 30.0885 302.598 30.4271 302.91 30.6875L298.926 32.4844C298.717 32.1979 298.548 31.8984 298.418 31.5859C298.288 31.2995 298.184 31.0391 298.105 30.8047C298.001 30.5182 297.936 30.2578 297.91 30.0234C297.858 29.7109 297.806 29.3724 297.754 29.0078C297.702 28.6172 297.637 28.2526 297.559 27.9141C297.507 27.5495 297.467 27.25 297.441 27.0156C297.415 26.7812 297.415 26.638 297.441 26.5859C297.467 26.5339 297.311 26.7682 296.973 27.2891C296.634 27.7839 296.126 28.3698 295.449 29.0469C294.798 29.6979 293.991 30.3359 293.027 30.9609C292.064 31.5599 290.983 31.9375 289.785 32.0938C288.561 32.25 287.428 32.0156 286.387 31.3906C285.371 30.7656 284.499 29.8932 283.77 28.7734C283.04 27.6276 282.48 26.3125 282.09 24.8281C281.725 23.3177 281.582 21.7812 281.66 20.2188C281.712 19.1771 281.947 18.2526 282.363 17.4453C282.78 16.612 283.301 15.8958 283.926 15.2969C284.577 14.6719 285.28 14.151 286.035 13.7344C286.816 13.2917 287.572 12.9271 288.301 12.6406C289.056 12.3542 289.759 12.1458 290.41 12.0156C291.061 11.8854 291.582 11.7943 291.973 11.7422C292.441 11.7161 292.975 11.7943 293.574 11.9766C294.095 12.1328 294.694 12.3932 295.371 12.7578C296.074 13.1224 296.855 13.6693 297.715 14.3984C297.559 11.7943 297.415 9.71094 297.285 8.14844C297.155 6.5599 297.025 5.34896 296.895 4.51562C296.764 3.52604 296.647 2.84896 296.543 2.48438C296.413 2.22396 296.243 1.96354 296.035 1.70312C295.853 1.49479 295.618 1.28646 295.332 1.07812C295.072 0.84375 294.759 0.661458 294.395 0.53125C295.072 0.661458 295.723 0.752604 296.348 0.804688C296.973 0.856771 297.546 0.908854 298.066 0.960938C298.665 1.01302 299.238 1.05208 299.785 1.07812ZM289.98 15.6484C289.486 15.8307 289.082 16.1432 288.77 16.5859C288.483 17.0286 288.249 17.5625 288.066 18.1875C287.884 18.7865 287.754 19.4375 287.676 20.1406C287.624 20.8177 287.585 21.4818 287.559 22.1328C287.559 22.7578 287.559 23.3307 287.559 23.8516C287.559 24.3724 287.559 24.763 287.559 25.0234C287.559 25.1797 287.585 25.4661 287.637 25.8828C287.715 26.2734 287.871 26.6901 288.105 27.1328C288.34 27.5495 288.665 27.9271 289.082 28.2656C289.525 28.6042 290.111 28.7734 290.84 28.7734C291.439 28.7214 292.077 28.513 292.754 28.1484C293.353 27.8359 294.03 27.3411 294.785 26.6641C295.566 25.9609 296.4 24.9583 297.285 23.6562C297.233 22.8229 297.194 22.1328 297.168 21.5859C297.168 21.0391 297.155 20.5964 297.129 20.2578C297.103 19.8672 297.09 19.5547 297.09 19.3203V18.7344C297.09 18.5781 297.09 18.4089 297.09 18.2266C297.09 18.0443 297.103 17.875 297.129 17.7188C296.4 17.1979 295.749 16.7552 295.176 16.3906C294.629 16 294.082 15.7135 293.535 15.5312C293.014 15.3229 292.467 15.2318 291.895 15.2578C291.348 15.2578 290.71 15.388 289.98 15.6484ZM302.199 9.47656C302.642 9.55469 303.098 9.61979 303.566 9.67188C304.009 9.69792 304.413 9.72396 304.777 9.75C305.194 9.77604 305.598 9.78906 305.988 9.78906C306.379 9.78906 306.822 9.77604 307.316 9.75C307.733 9.72396 308.228 9.6849 308.801 9.63281C309.4 9.58073 310.051 9.5026 310.754 9.39844C310.337 9.63281 310.012 9.88021 309.777 10.1406C309.543 10.401 309.361 10.6354 309.23 10.8438C309.074 11.1042 308.97 11.3385 308.918 11.5469C308.866 11.7552 308.879 12.1849 308.957 12.8359C309.035 13.487 309.139 14.2422 309.27 15.1016C309.426 15.9609 309.595 16.8594 309.777 17.7969C309.96 18.7344 310.142 19.5938 310.324 20.375C310.533 21.1562 310.715 21.8073 310.871 22.3281C311.053 22.849 311.197 23.0964 311.301 23.0703C311.405 23.0703 311.561 22.8099 311.77 22.2891C312.004 21.7682 312.264 21.1302 312.551 20.375C312.837 19.5938 313.137 18.7474 313.449 17.8359C313.762 16.8984 314.035 16.026 314.27 15.2188C314.504 14.4115 314.686 13.7344 314.816 13.1875C314.973 12.6146 315.038 12.276 315.012 12.1719C314.934 12.0677 314.842 11.9245 314.738 11.7422C314.556 11.4557 314.152 10.9609 313.527 10.2578C314.283 10.3099 314.934 10.362 315.48 10.4141C316.027 10.4401 316.47 10.4792 316.809 10.5312C317.199 10.5833 317.512 10.6224 317.746 10.6484C317.98 10.6745 318.319 10.6745 318.762 10.6484C319.126 10.6484 319.608 10.6354 320.207 10.6094C320.832 10.5573 321.6 10.4792 322.512 10.375C321.835 10.7656 321.275 11.1172 320.832 11.4297C320.415 11.7161 320.09 11.9635 319.855 12.1719C319.569 12.4323 319.361 12.6536 319.23 12.8359C319.048 13.1745 318.723 13.9818 318.254 15.2578C318.046 15.8047 317.785 16.4818 317.473 17.2891C317.186 18.0964 316.835 19.0729 316.418 20.2188C316.027 21.3385 315.559 22.6536 315.012 24.1641C314.465 25.6745 313.853 27.4062 313.176 29.3594L309.387 29.75C308.892 28.1094 308.488 26.7422 308.176 25.6484C307.889 24.5286 307.655 23.6302 307.473 22.9531C307.264 22.1719 307.108 21.5599 307.004 21.1172C306.874 20.6224 306.717 19.9062 306.535 18.9688C306.353 18.0052 306.171 17.0286 305.988 16.0391C305.806 15.0495 305.624 14.1641 305.441 13.3828C305.259 12.5755 305.116 12.0807 305.012 11.8984C304.908 11.7682 304.725 11.5859 304.465 11.3516C304.257 11.1432 303.97 10.8958 303.605 10.6094C303.241 10.2969 302.772 9.91927 302.199 9.47656ZM321.02 13.5391L328.207 13.6172C327.79 15.2057 327.478 16.5599 327.27 17.6797C327.087 18.7995 326.97 19.737 326.918 20.4922C326.814 21.3516 326.788 22.0807 326.84 22.6797C326.918 23.2266 327.048 23.8125 327.23 24.4375C327.387 24.9583 327.621 25.5573 327.934 26.2344C328.246 26.9115 328.663 27.5885 329.184 28.2656C328.871 28.1615 328.533 28.0833 328.168 28.0312C327.803 27.9792 327.465 27.9401 327.152 27.9141C326.788 27.888 326.423 27.888 326.059 27.9141C325.694 27.9401 325.29 27.9792 324.848 28.0312C324.483 28.0833 324.04 28.1484 323.52 28.2266C322.999 28.3047 322.452 28.4089 321.879 28.5391C322.27 27.3672 322.569 26.3516 322.777 25.4922C323.012 24.6328 323.181 23.9167 323.285 23.3438C323.389 22.6667 323.454 22.1198 323.48 21.7031C323.48 21.1823 323.48 20.5964 323.48 19.9453C323.48 19.2682 323.48 18.6172 323.48 17.9922C323.48 17.3672 323.467 16.8203 323.441 16.3516C323.415 15.8568 323.363 15.5443 323.285 15.4141L322.895 15.0234C322.738 14.8932 322.504 14.7109 322.191 14.4766C321.905 14.2161 321.514 13.9036 321.02 13.5391ZM323.793 7.52344C324.34 7.23698 324.887 7.15885 325.434 7.28906C326.007 7.41927 326.449 7.66667 326.762 8.03125C327.074 8.39583 327.178 8.82552 327.074 9.32031C326.996 9.8151 326.579 10.2969 325.824 10.7656C325.069 11.2083 324.405 11.3646 323.832 11.2344C323.259 11.1042 322.855 10.8307 322.621 10.4141C322.387 9.9974 322.348 9.51562 322.504 8.96875C322.66 8.39583 323.09 7.91406 323.793 7.52344ZM348.316 8.69531C348.082 9.26823 347.874 9.78906 347.691 10.2578C347.535 10.7266 347.392 11.1432 347.262 11.5078C347.132 11.9245 347.014 12.2891 346.91 12.6016C346.806 12.9661 346.689 13.3828 346.559 13.8516C346.428 14.2682 346.259 14.7891 346.051 15.4141C345.868 16.013 345.647 16.7292 345.387 17.5625C345.178 16.3125 344.801 15.3229 344.254 14.5938C343.707 13.8385 343.147 13.2526 342.574 12.8359C341.897 12.3672 341.168 12.0286 340.387 11.8203C338.98 11.5859 337.965 11.612 337.34 11.8984C336.715 12.1849 336.298 12.5495 336.09 12.9922C335.986 13.1745 335.868 13.4089 335.738 13.6953C335.634 13.9557 335.543 14.2292 335.465 14.5156C335.413 14.8021 335.4 15.0885 335.426 15.375C335.452 15.6615 335.569 15.8958 335.777 16.0781C335.908 16.2083 336.246 16.3906 336.793 16.625C337.34 16.8333 337.991 17.0807 338.746 17.3672C339.527 17.6276 340.348 17.9141 341.207 18.2266C342.092 18.5391 342.926 18.8516 343.707 19.1641C344.488 19.4766 345.165 19.7891 345.738 20.1016C346.311 20.4141 346.689 20.7005 346.871 20.9609C347.027 21.2214 347.197 21.5729 347.379 22.0156C347.587 22.4323 347.73 22.901 347.809 23.4219C347.913 23.9167 347.939 24.4375 347.887 24.9844C347.861 25.5052 347.717 26.026 347.457 26.5469C347.197 27.0677 346.78 27.5495 346.207 27.9922C345.66 28.4349 344.918 28.7995 343.98 29.0859C342.887 29.4245 341.832 29.5156 340.816 29.3594C339.801 29.2031 338.863 28.9688 338.004 28.6562C337.171 28.3438 336.441 28.0443 335.816 27.7578C335.191 27.4453 334.749 27.3151 334.488 27.3672C334.202 27.4193 333.876 27.5625 333.512 27.7969C333.147 28.0312 332.796 28.2786 332.457 28.5391C332.145 28.7734 331.871 28.9948 331.637 29.2031C331.402 29.3854 331.285 29.4505 331.285 29.3984C331.285 29.3464 331.324 29.1901 331.402 28.9297C331.507 28.6693 331.611 28.3568 331.715 27.9922C331.845 27.6016 331.962 27.1849 332.066 26.7422C332.197 26.2734 332.288 25.8307 332.34 25.4141C332.392 25.0755 332.457 24.6589 332.535 24.1641C332.587 23.7214 332.652 23.1875 332.73 22.5625C332.835 21.9115 332.952 21.1302 333.082 20.2188C333.212 20.8958 333.395 21.4818 333.629 21.9766C333.889 22.4714 334.137 22.901 334.371 23.2656C334.658 23.6823 334.931 24.0339 335.191 24.3203C335.582 24.6849 336.038 25.0234 336.559 25.3359C337.105 25.6484 337.652 25.9219 338.199 26.1562C338.746 26.3646 339.267 26.4948 339.762 26.5469C340.257 26.599 340.673 26.5469 341.012 26.3906C341.35 26.2344 341.637 25.9479 341.871 25.5312C342.132 25.1146 342.314 24.6589 342.418 24.1641C342.522 23.6693 342.561 23.2005 342.535 22.7578C342.509 22.2891 342.392 21.9115 342.184 21.625C342.027 21.4427 341.663 21.2083 341.09 20.9219C340.543 20.6354 339.879 20.3229 339.098 19.9844C338.342 19.6458 337.535 19.2943 336.676 18.9297C335.842 18.5651 335.048 18.2005 334.293 17.8359C333.564 17.4453 332.952 17.0807 332.457 16.7422C331.988 16.3776 331.728 16.0521 331.676 15.7656C331.624 15.349 331.585 14.8932 331.559 14.3984C331.533 13.8776 331.559 13.3698 331.637 12.875C331.741 12.3542 331.923 11.8594 332.184 11.3906C332.47 10.9219 332.887 10.5312 333.434 10.2188C333.798 10.0104 334.28 9.85417 334.879 9.75C335.478 9.64583 336.142 9.59375 336.871 9.59375C337.6 9.56771 338.355 9.59375 339.137 9.67188C339.918 9.72396 340.66 9.80208 341.363 9.90625C342.092 9.98438 342.743 10.0885 343.316 10.2188C343.915 10.349 344.371 10.4661 344.684 10.5703C345.048 10.7005 345.439 10.7135 345.855 10.6094C346.22 10.5312 346.611 10.362 347.027 10.1016C347.444 9.84115 347.874 9.3724 348.316 8.69531ZM360.379 24.7109C361.108 24.7109 361.785 24.6328 362.41 24.4766C362.931 24.3464 363.426 24.138 363.895 23.8516C364.389 23.5391 364.715 23.0833 364.871 22.4844C365.392 22.5885 365.835 22.6797 366.199 22.7578C366.564 22.8099 366.876 22.862 367.137 22.9141C367.423 22.9922 367.671 23.0443 367.879 23.0703C368.087 23.1224 368.335 23.1745 368.621 23.2266C368.882 23.2786 369.194 23.3438 369.559 23.4219C369.949 23.474 370.405 23.5521 370.926 23.6562C370.535 23.6042 370.132 23.6432 369.715 23.7734C369.324 23.9036 368.947 24.0469 368.582 24.2031C368.165 24.3854 367.775 24.6068 367.41 24.8672C367.176 25.0234 366.902 25.2578 366.59 25.5703C366.303 25.8828 365.887 26.1823 365.34 26.4688C364.793 26.7552 364.064 27.0026 363.152 27.2109C362.267 27.3932 361.121 27.4583 359.715 27.4062C358.022 27.3542 356.603 27.0547 355.457 26.5078C354.311 25.9349 353.387 25.2448 352.684 24.4375C351.98 23.6042 351.473 22.7057 351.16 21.7422C350.848 20.7786 350.678 19.8802 350.652 19.0469C350.626 18.2135 350.874 17.3411 351.395 16.4297C351.915 15.5182 352.645 14.6849 353.582 13.9297C354.546 13.1745 355.704 12.5625 357.059 12.0938C358.413 11.599 359.897 11.3516 361.512 11.3516C362.449 11.3516 363.309 11.4688 364.09 11.7031C364.897 11.9115 365.626 12.1979 366.277 12.5625C366.954 12.9271 367.54 13.3438 368.035 13.8125C368.53 14.2552 368.947 14.7109 369.285 15.1797C369.624 15.6745 369.91 16.1953 370.145 16.7422C370.353 17.2109 370.522 17.7448 370.652 18.3438C370.783 18.9427 370.822 19.5547 370.77 20.1797C368.79 20.2318 367.189 20.2708 365.965 20.2969C364.767 20.3229 363.829 20.3359 363.152 20.3359H361.395H360.066C359.598 20.3359 358.986 20.349 358.23 20.375C357.475 20.401 356.551 20.4401 355.457 20.4922C355.587 21.5339 355.913 22.3411 356.434 22.9141C356.98 23.4609 357.553 23.8776 358.152 24.1641C358.829 24.4766 359.572 24.6589 360.379 24.7109ZM356.863 17.6797C357.697 17.7318 358.387 17.7708 358.934 17.7969C359.507 17.8229 359.975 17.849 360.34 17.875C360.73 17.901 361.043 17.9141 361.277 17.9141H362.254C362.905 17.9141 364.116 17.875 365.887 17.7969C365.809 16.651 365.561 15.7786 365.145 15.1797C364.754 14.5807 364.337 14.138 363.895 13.8516C363.374 13.5391 362.801 13.3568 362.176 13.3047C360.483 13.3307 359.22 13.6823 358.387 14.3594C357.579 15.0365 357.072 16.1432 356.863 17.6797ZM372.441 12.2891C372.936 12.3151 373.379 12.3281 373.77 12.3281C374.186 12.3021 374.538 12.276 374.824 12.25C375.163 12.224 375.462 12.1979 375.723 12.1719C376.113 12.1198 376.517 12.0547 376.934 11.9766C377.298 11.9245 377.676 11.8594 378.066 11.7812C378.483 11.6771 378.887 11.5599 379.277 11.4297C379.121 11.8203 378.991 12.1589 378.887 12.4453C378.783 12.7318 378.704 12.9792 378.652 13.1875C378.574 13.4219 378.535 13.6172 378.535 13.7734C378.509 13.9557 378.496 14.1771 378.496 14.4375C378.47 14.8802 378.47 15.5964 378.496 16.5859C379.85 15.4141 380.983 14.5026 381.895 13.8516C382.832 13.2005 383.574 12.6927 384.121 12.3281C384.772 11.9115 385.28 11.638 385.645 11.5078C386.608 11.3516 387.454 11.5729 388.184 12.1719C388.496 12.4323 388.796 12.7839 389.082 13.2266C389.368 13.6432 389.616 14.2031 389.824 14.9062C390.033 15.6094 390.189 16.4557 390.293 17.4453C390.397 18.4089 390.41 19.5677 390.332 20.9219C389.785 20.974 389.29 21.026 388.848 21.0781C388.431 21.1302 388.079 21.1693 387.793 21.1953C387.454 21.2474 387.142 21.2734 386.855 21.2734L385.801 21.3906C385.436 21.4427 384.98 21.4948 384.434 21.5469C383.913 21.5729 383.275 21.625 382.52 21.7031C383.613 20.8177 384.316 20.0495 384.629 19.3984C384.967 18.7214 385.111 18.1615 385.059 17.7188C385.007 17.224 384.772 16.7943 384.355 16.4297C383.861 16.1432 383.327 16.0391 382.754 16.1172C382.259 16.1693 381.686 16.3906 381.035 16.7812C380.384 17.1719 379.694 17.901 378.965 18.9688C379.017 20.6354 379.069 22.0156 379.121 23.1094C379.199 24.2031 379.264 25.0885 379.316 25.7656C379.395 26.5469 379.46 27.1589 379.512 27.6016C379.59 27.9922 379.746 28.4089 379.98 28.8516C380.163 29.2161 380.423 29.6198 380.762 30.0625C381.1 30.5052 381.543 30.9479 382.09 31.3906C380.944 31.3385 380.007 31.3385 379.277 31.3906C378.835 31.4167 378.444 31.4427 378.105 31.4688C377.741 31.5208 377.35 31.5729 376.934 31.625C376.569 31.6771 376.139 31.7292 375.645 31.7812C375.176 31.8594 374.655 31.9375 374.082 32.0156C374.29 31.7292 374.46 31.3906 374.59 31C374.72 30.6354 374.824 30.2839 374.902 29.9453C375.007 29.5547 375.085 29.151 375.137 28.7344C375.163 28.3698 375.176 27.8229 375.176 27.0938C375.202 26.3646 375.189 25.5443 375.137 24.6328C375.111 23.6953 375.072 22.7318 375.02 21.7422C374.967 20.7266 374.902 19.776 374.824 18.8906C374.746 18.0052 374.655 17.237 374.551 16.5859C374.473 15.9089 374.382 15.4401 374.277 15.1797C374.147 14.8672 373.991 14.5547 373.809 14.2422C373.652 13.9557 373.457 13.6562 373.223 13.3438C372.988 13.0052 372.728 12.6536 372.441 12.2891Z" fill="white"/>
</svg>
